<svg xmlns="http://www.w3.org/2000/svg" xmlns:xlink="http://www.w3.org/1999/xlink" xmlns:inkscape="http://www.inkscape.org/namespaces/inkscape" version="1.1" width="176.305" height="80.324" viewBox="0 0 176.305 80.324">
<text xml:space="preserve" transform="matrix(1 0 -0 1 0 80.324)" font-size="9.9626" font-family="Computer Modern"><tspan y="-69.759" x="67.051 73.83553 76.60513 81.58643 86.00983 93.75076 98.17416 103.71336">Placecup</tspan></text>
<text xml:space="preserve" transform="matrix(1 0 -0 1 .0000076293949 80.324)" font-size="9.9626" font-family="Computer Modern"><tspan y="-35.679" x="72.489 79.682 85.22121 90.48146 95.46276 99.38802">Choose</tspan></text>
<text xml:space="preserve" transform="matrix(1 0 -0 1 .000005722046 80.32399)" font-size="9.9626" font-family="Computer Modern"><tspan y="-3.646" x="13.53 22.944657 27.925957 30.69556">Wait</tspan></text>
<text xml:space="preserve" transform="matrix(1 0 -0 1 0 80.32399)" font-size="9.9626" font-family="Computer Modern"><tspan y="-3.646" x="141.743 151.15766 156.13895 158.90856">Wait</tspan></text>
<path transform="matrix(1,0,0,-1,88.153,40.162)" stroke-width=".39848" stroke-linecap="butt" stroke-miterlimit="10" stroke-linejoin="miter" fill="none" stroke="#000000" d="M0 23.8152V6.67915"/>
<path transform="matrix(0,1,1,0,88.153,33.6821)" stroke-width=".39848" stroke-linecap="round" stroke-linejoin="round" fill="none" stroke="#000000" d="M-2.07213 2.39091C-1.69356 .95633-.84995 .27893 0 0-.84995-.27893-1.69356-.95633-2.07213-2.39091"/>
<text xml:space="preserve" transform="matrix(1 0 -0 1 0 80.324008)" font-size="6.9738" font-family="Computer Modern"><tspan y="-54.386" x="90.497 94.039699 98.44016">cup</tspan></text>
<path transform="matrix(1,0,0,-1,88.153,40.162)" stroke-width=".39848" stroke-linecap="butt" stroke-miterlimit="10" stroke-linejoin="miter" fill="none" stroke="#000000" d="M-12.67488-8.3286-48.74617-26.3535"/>
<path transform="matrix(-.89449,.44698,.44698,.89449,39.22862,66.60454)" stroke-width=".39848" stroke-linecap="round" stroke-linejoin="round" fill="none" stroke="#000000" d="M-2.07213 2.39091C-1.69356 .95633-.84995 .27893 0 0-.84995-.27893-1.69356-.95633-2.07213-2.39091"/>
<text xml:space="preserve" transform="matrix(1 0 -0 1 0 80.324008)" font-size="6.9738" font-family="Computer Modern"><tspan y="-25.076" x="44.293 47.403314 50.946004">tea</tspan></text>
<path transform="matrix(1,0,0,-1,88.153,40.162)" stroke-width=".39848" stroke-linecap="butt" stroke-miterlimit="10" stroke-linejoin="miter" fill="none" stroke="#000000" d="M12.67488-8.3286 48.74617-26.3535"/>
<path transform="matrix(.89449,.44698,.44698,-.89449,137.07738,66.60454)" stroke-width=".39848" stroke-linecap="round" stroke-linejoin="round" fill="none" stroke="#000000" d="M-2.07213 2.39091C-1.69356 .95633-.84995 .27893 0 0-.84995-.27893-1.69356-.95633-2.07213-2.39091"/>
<text xml:space="preserve" transform="matrix(1 0 -0 1 -.0000076293949 80.324008)" font-size="6.9738" font-family="Computer Modern"><tspan y="-25.076" x="121.385 124.9277 128.90276 131.26688 133.631 137.17369">coffee</tspan></text>
<path transform="matrix(1,0,0,-1,88.153,40.162)" stroke-width=".39848" stroke-linecap="butt" stroke-miterlimit="10" stroke-linejoin="miter" fill="none" stroke="#000000" d="M-61.9173-25.86311C-54.54356 1.59793-35.31206 21.43137-25.97194 24.25041"/>
<path transform="matrix(.9573,-.28893,-.28893,-.9573,62.37178,15.854019)" stroke-width=".39848" stroke-linecap="round" stroke-linejoin="round" fill="none" stroke="#000000" d="M-2.07213 2.39091C-1.69356 .95633-.84995 .27893 0 0-.84995-.27893-1.69356-.95633-2.07213-2.39091"/>
<text xml:space="preserve" transform="matrix(1 0 -0 1 -.00000333786 80.324)" font-size="6.9738" font-family="Computer Modern"><tspan y="-66.496" x="7.126 11.526468 13.779006 16.938138 21.554795 25.097485 29.497954 32.657087">dispense</tspan><tspan y="-54.541" x="16.346 19.456316 22.999007">tea</tspan></text>
<path transform="matrix(1,0,0,-1,88.153,40.162)" stroke-width=".39848" stroke-linecap="butt" stroke-miterlimit="10" stroke-linejoin="miter" fill="none" stroke="#000000" d="M61.9173-25.86311C54.54356 1.59793 35.31206 21.43137 25.97194 24.25041"/>
<path transform="matrix(-.9573,-.28893,-.28893,.9573,113.93422,15.854019)" stroke-width=".39848" stroke-linecap="round" stroke-linejoin="round" fill="none" stroke="#000000" d="M-2.07213 2.39091C-1.69356 .95633-.84995 .27893 0 0-.84995-.27893-1.69356-.95633-2.07213-2.39091"/>
<text xml:space="preserve" transform="matrix(1 0 -0 1 0 80.324)" font-size="6.9738" font-family="Computer Modern"><tspan y="-66.496" x="140.112 144.51247 146.765 149.92414 154.54079 158.08348 162.48395 165.64308">dispense</tspan><tspan y="-54.541" x="144.984 148.52669 152.50176 154.86588 157.23 160.77269">coffee</tspan></text>
</svg>
