<svg xmlns="http://www.w3.org/2000/svg" xmlns:xlink="http://www.w3.org/1999/xlink" xmlns:inkscape="http://www.inkscape.org/namespaces/inkscape" version="1.1" width="285.457" height="84.434" viewBox="0 0 285.457 84.434">
<text xml:space="preserve" transform="matrix(1 0 -0 1 .0000076293949 84.434)" font-size="9.9626" font-family="Computer Modern"><tspan y="-69.759" x="121.627 128.41153 131.18114 136.16243 140.58583 148.32678 152.75019 158.28939">Placecup</tspan></text>
<text xml:space="preserve" transform="matrix(1 0 -0 1 .000011444092 84.434)" font-size="9.9626" font-family="Computer Modern"><tspan y="-35.679" x="57.811 65.004 70.543209 75.80346 80.78476 84.71002">Choose</tspan></text>
<text xml:space="preserve" transform="matrix(1 0 -0 1 0 84.434)" font-size="9.9626" font-family="Computer Modern"><tspan y="-35.679" x="196.319 203.512 209.0512 214.31143 219.29273 223.21799">Choose</tspan></text>
<text xml:space="preserve" transform="matrix(1 0 -0 1 -.00000047683718 84.43399)" font-size="9.9626" font-family="Computer Modern"><tspan y="-3.646" x="4.289 13.703656 18.684956 21.45456">Wait</tspan></text>
<text xml:space="preserve" transform="matrix(1 0 -0 1 .000030517579 84.43399)" font-size="9.9626" font-family="Computer Modern"><tspan y="-3.646" x="260.136 269.55064 274.53193 277.3015">Wait</tspan></text>
<path transform="matrix(1,0,0,-1,142.729,44.272)" stroke-width=".39848" stroke-linecap="butt" stroke-miterlimit="10" stroke-linejoin="miter" fill="none" stroke="#000000" d="M-16.8078 23.8152-52.09267 6.45656"/>
<path transform="matrix(-.89725,.4414,.4414,.89725,90.457569,37.90338)" stroke-width=".39848" stroke-linecap="round" stroke-linejoin="round" fill="none" stroke="#000000" d="M-2.07213 2.39091C-1.69356 .95633-.84995 .27893 0 0-.84995-.27893-1.69356-.95633-2.07213-2.39091"/>
<text xml:space="preserve" transform="matrix(1 0 -0 1 0 84.434)" font-size="6.9738" font-family="Computer Modern"><tspan y="-49.863" x="110.444 113.986698 118.38716">cup</tspan></text>
<path transform="matrix(1,0,0,-1,142.729,44.272)" stroke-width=".39848" stroke-linecap="butt" stroke-miterlimit="10" stroke-linejoin="miter" fill="none" stroke="#000000" d="M16.8078 23.8152 52.09267 6.45656"/>
<path transform="matrix(.89725,.4414,.4414,-.89725,195.00045,37.90338)" stroke-width=".39848" stroke-linecap="round" stroke-linejoin="round" fill="none" stroke="#000000" d="M-2.07213 2.39091C-1.69356 .95633-.84995 .27893 0 0-.84995-.27893-1.69356-.95633-2.07213-2.39091"/>
<text xml:space="preserve" transform="matrix(1 0 -0 1 0 84.434)" font-size="6.9738" font-family="Computer Modern"><tspan y="-49.863" x="162.671 166.2137 170.61417">cup</tspan></text>
<path transform="matrix(1,0,0,-1,142.729,44.272)" stroke-width=".39848" stroke-linecap="butt" stroke-miterlimit="10" stroke-linejoin="miter" fill="none" stroke="#000000" d="M-80.85913-8.3286-112.62706-25.6722"/>
<path transform="matrix(-.87767,.47914,.47914,.87767,29.927094,70.03965)" stroke-width=".39848" stroke-linecap="round" stroke-linejoin="round" fill="none" stroke="#000000" d="M-2.07213 2.39091C-1.69356 .95633-.84995 .27893 0 0-.84995-.27893-1.69356-.95633-2.07213-2.39091"/>
<text xml:space="preserve" transform="matrix(1 0 -0 1 .0000076293949 84.434)" font-size="6.9738" font-family="Computer Modern"><tspan y="-16.433" x="48.156 51.26631 54.809003">tea</tspan></text>
<path transform="matrix(1,0,0,-1,142.729,44.272)" stroke-width=".39848" stroke-linecap="butt" stroke-miterlimit="10" stroke-linejoin="miter" fill="none" stroke="#000000" d="M80.85913-8.3286 112.62706-25.6722"/>
<path transform="matrix(.87767,.47914,.47914,-.87767,255.53092,70.03965)" stroke-width=".39848" stroke-linecap="round" stroke-linejoin="round" fill="none" stroke="#000000" d="M-2.07213 2.39091C-1.69356 .95633-.84995 .27893 0 0-.84995-.27893-1.69356-.95633-2.07213-2.39091"/>
<text xml:space="preserve" transform="matrix(1 0 -0 1 0 84.434)" font-size="6.9738" font-family="Computer Modern"><tspan y="-15.879" x="217.978 221.52069 225.49576 227.85988 230.224 233.7667">coffee</tspan></text>
<path transform="matrix(1,0,0,-1,142.729,44.272)" stroke-width=".39848" stroke-linecap="butt" stroke-miterlimit="10" stroke-linejoin="miter" fill="none" stroke="#000000" d="M-121.7095-25.86311C-94.12778 10.355-55.75194 30.18843-25.98872 31.20296"/>
<path transform="matrix(.99939,-.03406,-.03406,-.99939,116.93941,13.062279)" stroke-width=".39848" stroke-linecap="round" stroke-linejoin="round" fill="none" stroke="#000000" d="M-2.07213 2.39091C-1.69356 .95633-.84995 .27893 0 0-.84995-.27893-1.69356-.95633-2.07213-2.39091"/>
<text xml:space="preserve" transform="matrix(1 0 -0 1 .000005722046 84.434)" font-size="6.9738" font-family="Computer Modern"><tspan y="-73.92" x="31.719 36.11947 38.372007 41.531137 46.14779 49.69048 54.090948 57.250078">dispense</tspan><tspan y="-61.964998" x="40.94 44.050313 47.593004">tea</tspan></text>
<path transform="matrix(1,0,0,-1,142.729,44.272)" stroke-width=".39848" stroke-linecap="butt" stroke-miterlimit="10" stroke-linejoin="miter" fill="none" stroke="#000000" d="M121.7095-25.86311C94.12778 10.355 55.75194 30.18843 25.98872 31.20296"/>
<path transform="matrix(-.99939,-.03406,-.03406,.99939,168.5186,13.062279)" stroke-width=".39848" stroke-linecap="round" stroke-linejoin="round" fill="none" stroke="#000000" d="M-2.07213 2.39091C-1.69356 .95633-.84995 .27893 0 0-.84995-.27893-1.69356-.95633-2.07213-2.39091"/>
<text xml:space="preserve" transform="matrix(1 0 -0 1 0 84.434)" font-size="6.9738" font-family="Computer Modern"><tspan y="-73.92" x="224.67 229.07047 231.323 234.48213 239.09879 242.64148 247.04195 250.20108">dispense</tspan><tspan y="-61.964998" x="229.54199 233.08469 237.05976 239.42388 241.788 245.33069">coffee</tspan></text>
</svg>
