<svg xmlns="http://www.w3.org/2000/svg" xmlns:xlink="http://www.w3.org/1999/xlink" xmlns:inkscape="http://www.inkscape.org/namespaces/inkscape" version="1.1" width="246.554" height="77.414" viewBox="0 0 246.554 77.414">
<text xml:space="preserve" transform="matrix(1 0 -0 1 .0000038146974 77.414)" font-size="9.9626" font-family="Computer Modern" font-style="italic"><tspan y="-67.64" x="45.918">s</tspan></text>
<text xml:space="preserve" transform="matrix(1 0 -0 1 .0000038146974 77.414)" font-size="6.9738" font-family="Computer Modern"><tspan y="-66.145999" x="50.587999">0</tspan></text>
<text xml:space="preserve" transform="matrix(1 0 -0 1 0 77.414)" font-size="9.9626" font-family="Computer Modern" font-style="italic"><tspan y="-67.64" x="193.642">t</tspan></text>
<text xml:space="preserve" transform="matrix(1 0 -0 1 0 77.414)" font-size="6.9738" font-family="Computer Modern"><tspan y="-66.145999" x="197.239">0</tspan></text>
<text xml:space="preserve" transform="matrix(1 0 -0 1 .000008583069 77.414)" font-size="9.9626" font-family="Computer Modern" font-style="italic"><tspan y="-34.793" x="4.289">s</tspan></text>
<text xml:space="preserve" transform="matrix(1 0 -0 1 .000008583069 77.414)" font-size="6.9738" font-family="Computer Modern"><tspan y="-33.299" x="8.959">1</tspan></text>
<text xml:space="preserve" transform="matrix(1 0 -0 1 .000011444092 77.414)" font-size="9.9626" font-family="Computer Modern" font-style="italic"><tspan y="-34.793" x="45.918">s</tspan></text>
<text xml:space="preserve" transform="matrix(1 0 -0 1 .000011444092 77.414)" font-size="6.9738" font-family="Computer Modern"><tspan y="-33.299" x="50.587999">2</tspan></text>
<text xml:space="preserve" transform="matrix(1 0 -0 1 .000015258789 77.414)" font-size="9.9626" font-family="Computer Modern" font-style="italic"><tspan y="-34.793" x="87.547">s</tspan></text>
<text xml:space="preserve" transform="matrix(1 0 -0 1 .000015258789 77.414)" font-size="6.9738" font-family="Computer Modern"><tspan y="-33.299" x="92.216999">3</tspan></text>
<text xml:space="preserve" transform="matrix(1 0 -0 1 .000015258789 77.414)" font-size="9.9626" font-family="Computer Modern" font-style="italic"><tspan y="-34.793" x="153.085">t</tspan></text>
<text xml:space="preserve" transform="matrix(1 0 -0 1 .000015258789 77.414)" font-size="6.9738" font-family="Computer Modern"><tspan y="-33.299" x="156.68302">1</tspan></text>
<text xml:space="preserve" transform="matrix(1 0 -0 1 .000015258789 77.414)" font-size="9.9626" font-family="Computer Modern" font-style="italic"><tspan y="-34.793" x="234.198">t</tspan></text>
<text xml:space="preserve" transform="matrix(1 0 -0 1 .000015258789 77.414)" font-size="6.9738" font-family="Computer Modern"><tspan y="-33.299" x="237.795">2</tspan></text>
<text xml:space="preserve" transform="matrix(1 0 -0 1 .00002670288 77.414)" font-size="9.9626" font-family="Computer Modern" font-style="italic"><tspan y="-3.646" x="49.104">&#x00b7;</tspan></text>
<text xml:space="preserve" transform="matrix(1 0 -0 1 .000030517579 77.414)" font-size="9.9626" font-family="Computer Modern" font-style="italic"><tspan y="-3.646" x="196.291">&#x00b7;</tspan></text>
<path transform="matrix(1,0,0,-1,123.277,38.707)" stroke-width=".39848" stroke-linecap="butt" stroke-miterlimit="10" stroke-linejoin="miter" fill="none" stroke="#000000" d="M-81.84888 24.27985-106.95624 4.46773"/>
<path transform="matrix(-.78497,.61943,.61943,.78497,16.16439,34.36265)" stroke-width=".39848" stroke-linecap="round" stroke-linejoin="round" fill="none" stroke="#000000" d="M-2.07213 2.39091C-1.69356 .95633-.84995 .27893 0 0-.84995-.27893-1.69356-.95633-2.07213-2.39091"/>
<text xml:space="preserve" transform="matrix(1 0 -0 1 -.0000019073487 77.414)" font-size="6.9738" font-family="Computer Modern" font-style="italic"><tspan y="-57.702" x="13.907 18.230755">a,</tspan></text>
<text xml:space="preserve" transform="matrix(1 0 -0 1 -.0000019073487 77.414)" font-size="4.9813" font-family="Computer Modern"><tspan y="-60.378999" x="21.789999">1</tspan></text>
<path transform="matrix(1,0,0,-1,21.789999,17.969002)" stroke-width=".339" stroke-linecap="butt" stroke-miterlimit="10" stroke-linejoin="miter" fill="none" stroke="#000000" d="M0 0H3.39"/>
<text xml:space="preserve" transform="matrix(1 0 -0 1 -.0000019073487 77.414)" font-size="4.9813" font-family="Computer Modern"><tspan y="-55.301" x="21.79">3</tspan></text>
<path transform="matrix(1,0,0,-1,123.277,38.707)" stroke-width=".39848" stroke-linecap="butt" stroke-miterlimit="10" stroke-linejoin="miter" fill="none" stroke="#000000" d="M-72.79037 23.59381V4.61938"/>
<path transform="matrix(0,1,1,0,50.486635,34.28685)" stroke-width=".39848" stroke-linecap="round" stroke-linejoin="round" fill="none" stroke="#000000" d="M-2.07213 2.39091C-1.69356 .95633-.84995 .27893 0 0-.84995-.27893-1.69356-.95633-2.07213-2.39091"/>
<text xml:space="preserve" transform="matrix(1 0 -0 1 0 77.414)" font-size="6.9738" font-family="Computer Modern" font-style="italic"><tspan y="-46.996" x="52.832 57.155759">a,</tspan></text>
<text xml:space="preserve" transform="matrix(1 0 -0 1 0 77.414)" font-size="4.9813" font-family="Computer Modern"><tspan y="-49.674" x="60.715">1</tspan></text>
<path transform="matrix(1,0,0,-1,60.715,28.674)" stroke-width=".339" stroke-linecap="butt" stroke-miterlimit="10" stroke-linejoin="miter" fill="none" stroke="#000000" d="M0 0H3.39"/>
<text xml:space="preserve" transform="matrix(1 0 -0 1 0 77.414)" font-size="4.9813" font-family="Computer Modern"><tspan y="-44.596" x="60.715">3</tspan></text>
<path transform="matrix(1,0,0,-1,123.277,38.707)" stroke-width=".39848" stroke-linecap="butt" stroke-miterlimit="10" stroke-linejoin="miter" fill="none" stroke="#000000" d="M-63.73189 24.27985-38.62453 4.46773"/>
<path transform="matrix(.78497,.61943,.61943,-.78497,84.80886,34.36265)" stroke-width=".39848" stroke-linecap="round" stroke-linejoin="round" fill="none" stroke="#000000" d="M-2.07213 2.39091C-1.69356 .95633-.84995 .27893 0 0-.84995-.27893-1.69356-.95633-2.07213-2.39091"/>
<text xml:space="preserve" transform="matrix(1 0 -0 1 .0000076293949 77.414)" font-size="6.9738" font-family="Computer Modern" font-style="italic"><tspan y="-57.702" x="74.6 78.92375">a,</tspan></text>
<text xml:space="preserve" transform="matrix(1 0 -0 1 .0000076293949 77.414)" font-size="4.9813" font-family="Computer Modern"><tspan y="-60.378999" x="82.483">1</tspan></text>
<path transform="matrix(1,0,0,-1,82.48301,17.969002)" stroke-width=".339" stroke-linecap="butt" stroke-miterlimit="10" stroke-linejoin="miter" fill="none" stroke="#000000" d="M0 0H3.39"/>
<text xml:space="preserve" transform="matrix(1 0 -0 1 .0000076293949 77.414)" font-size="4.9813" font-family="Computer Modern"><tspan y="-55.301" x="82.483">3</tspan></text>
<path transform="matrix(1,0,0,-1,123.277,38.707)" stroke-width=".39848" stroke-linecap="butt" stroke-miterlimit="10" stroke-linejoin="miter" fill="none" stroke="#000000" d="M65.87665 24.52159 42.67415 5.72603"/>
<path transform="matrix(-.77702,.62943,.62943,.77702,165.79636,33.10637)" stroke-width=".39848" stroke-linecap="round" stroke-linejoin="round" fill="none" stroke="#000000" d="M-2.07213 2.39091C-1.69356 .95633-.84995 .27893 0 0-.84995-.27893-1.69356-.95633-2.07213-2.39091"/>
<text xml:space="preserve" transform="matrix(1 0 -0 1 0 77.414)" font-size="6.9738" font-family="Computer Modern" font-style="italic"><tspan y="-58.45" x="162.584 166.90776">a,</tspan></text>
<text xml:space="preserve" transform="matrix(1 0 -0 1 0 77.414)" font-size="4.9813" font-family="Computer Modern"><tspan y="-61.127" x="170.467">1</tspan></text>
<path transform="matrix(1,0,0,-1,170.467,17.221)" stroke-width=".339" stroke-linecap="butt" stroke-miterlimit="10" stroke-linejoin="miter" fill="none" stroke="#000000" d="M0 0H3.39"/>
<text xml:space="preserve" transform="matrix(1 0 -0 1 0 77.414)" font-size="4.9813" font-family="Computer Modern"><tspan y="-56.049" x="170.467">3</tspan></text>
<path transform="matrix(1,0,0,-1,123.277,38.707)" stroke-width=".39848" stroke-linecap="butt" stroke-miterlimit="10" stroke-linejoin="miter" fill="none" stroke="#000000" d="M82.92125 24.52159 106.12375 5.72603"/>
<path transform="matrix(.77702,.62943,.62943,-.77702,229.55554,33.10637)" stroke-width=".39848" stroke-linecap="round" stroke-linejoin="round" fill="none" stroke="#000000" d="M-2.07213 2.39091C-1.69356 .95633-.84995 .27893 0 0-.84995-.27893-1.69356-.95633-2.07213-2.39091"/>
<text xml:space="preserve" transform="matrix(1 0 -0 1 0 77.414)" font-size="6.9738" font-family="Computer Modern" font-style="italic"><tspan y="-58.45" x="220.297 224.62076">a,</tspan></text>
<text xml:space="preserve" transform="matrix(1 0 -0 1 0 77.414)" font-size="4.9813" font-family="Computer Modern"><tspan y="-61.127" x="228.18">2</tspan></text>
<path transform="matrix(1,0,0,-1,228.18,17.221)" stroke-width=".339" stroke-linecap="butt" stroke-miterlimit="10" stroke-linejoin="miter" fill="none" stroke="#000000" d="M0 0H3.39"/>
<text xml:space="preserve" transform="matrix(1 0 -0 1 0 77.414)" font-size="4.9813" font-family="Computer Modern"><tspan y="-56.049" x="228.18">3</tspan></text>
<path transform="matrix(1,0,0,-1,123.277,38.707)" stroke-width=".39848" stroke-linecap="butt" stroke-miterlimit="10" stroke-linejoin="miter" fill="none" stroke="#000000" d="M-72.79037-9.25368V-26.38972"/>
<path transform="matrix(0,1,1,0,50.486635,65.295978)" stroke-width=".39848" stroke-linecap="round" stroke-linejoin="round" fill="none" stroke="#000000" d="M-2.07213 2.39091C-1.69356 .95633-.84995 .27893 0 0-.84995-.27893-1.69356-.95633-2.07213-2.39091"/>
<text xml:space="preserve" transform="matrix(1 0 -0 1 0 77.414)" font-size="6.9738" font-family="Computer Modern" font-style="italic"><tspan y="-18.943" x="38.303 41.80385">b,</tspan></text>
<text xml:space="preserve" transform="matrix(1 0 -0 1 0 77.414)" font-size="6.9738" font-family="Computer Modern"><tspan y="-18.943" x="44.167966">1</tspan></text>
<path transform="matrix(1,0,0,-1,123.277,38.707)" stroke-width=".39848" stroke-linecap="butt" stroke-miterlimit="10" stroke-linejoin="miter" fill="none" stroke="#000000" d="M-40.21977-8.20108-66.59888-27.93942"/>
<path transform="matrix(-.80064,.59909,.59909,.80064,56.51861,66.76578)" stroke-width=".39848" stroke-linecap="round" stroke-linejoin="round" fill="none" stroke="#000000" d="M-2.07213 2.39091C-1.69356 .95633-.84995 .27893 0 0-.84995-.27893-1.69356-.95633-2.07213-2.39091"/>
<text xml:space="preserve" transform="matrix(1 0 -0 1 0 77.414)" font-size="6.9738" font-family="Computer Modern" font-style="italic"><tspan y="-15.329" x="74.723 78.22385">b,</tspan></text>
<text xml:space="preserve" transform="matrix(1 0 -0 1 0 77.414)" font-size="6.9738" font-family="Computer Modern"><tspan y="-15.329" x="80.58797">1</tspan></text>
<path transform="matrix(1,0,0,-1,123.277,38.707)" stroke-width=".39848" stroke-linecap="butt" stroke-miterlimit="10" stroke-linejoin="miter" fill="none" stroke="#000000" d="M106.43336-7.96724 80.58742-27.82054"/>
<path transform="matrix(-.793,.60913,.60913,.793,203.70642,66.6489)" stroke-width=".39848" stroke-linecap="round" stroke-linejoin="round" fill="none" stroke="#000000" d="M-2.07213 2.39091C-1.69356 .95633-.84995 .27893 0 0-.84995-.27893-1.69356-.95633-2.07213-2.39091"/>
<text xml:space="preserve" transform="matrix(1 0 -0 1 0 77.414)" font-size="6.9738" font-family="Computer Modern" font-style="italic"><tspan y="-13.505" x="218.972 222.47286">b,</tspan></text>
<text xml:space="preserve" transform="matrix(1 0 -0 1 0 77.414)" font-size="6.9738" font-family="Computer Modern"><tspan y="-13.505" x="224.83698">1</tspan></text>
</svg>
