<svg xmlns="http://www.w3.org/2000/svg" xmlns:xlink="http://www.w3.org/1999/xlink" xmlns:inkscape="http://www.inkscape.org/namespaces/inkscape" version="1.1" width="201.532" height="115.796" viewBox="0 0 201.532 115.796">
<text xml:space="preserve" transform="matrix(1 0 -0 1 .0000038146974 115.796)" font-size="9.9626" font-family="Computer Modern" font-style="italic"><tspan y="-106.022" x="48.564">s</tspan></text>
<text xml:space="preserve" transform="matrix(1 0 -0 1 .0000038146974 115.796)" font-size="6.9738" font-family="Computer Modern"><tspan y="-104.528" x="53.234">0</tspan></text>
<text xml:space="preserve" transform="matrix(1 0 -0 1 .000015258789 115.796)" font-size="9.9626" font-family="Computer Modern" font-style="italic"><tspan y="-106.022" x="185.732">t</tspan></text>
<text xml:space="preserve" transform="matrix(1 0 -0 1 .000015258789 115.796)" font-size="6.9738" font-family="Computer Modern"><tspan y="-104.528" x="189.33">0</tspan></text>
<text xml:space="preserve" transform="matrix(1 0 -0 1 .000008583069 115.796)" font-size="9.9626" font-family="Computer Modern" font-style="italic"><tspan y="-73.175" x="4.289">s</tspan></text>
<text xml:space="preserve" transform="matrix(1 0 -0 1 .000008583069 115.796)" font-size="6.9738" font-family="Computer Modern"><tspan y="-71.681" x="8.959">1</tspan></text>
<text xml:space="preserve" transform="matrix(1 0 -0 1 .000015258789 115.796)" font-size="9.9626" font-family="Computer Modern" font-style="italic"><tspan y="-73.175" x="92.839">s</tspan></text>
<text xml:space="preserve" transform="matrix(1 0 -0 1 .000015258789 115.796)" font-size="6.9738" font-family="Computer Modern"><tspan y="-71.681" x="97.508998">2</tspan></text>
<text xml:space="preserve" transform="matrix(1 0 -0 1 .000015258789 115.796)" font-size="9.9626" font-family="Computer Modern" font-style="italic"><tspan y="-73.175" x="185.732">t</tspan></text>
<text xml:space="preserve" transform="matrix(1 0 -0 1 .000015258789 115.796)" font-size="6.9738" font-family="Computer Modern"><tspan y="-71.681" x="189.33">1</tspan></text>
<text xml:space="preserve" transform="matrix(1 0 -0 1 .000015258789 115.79599)" font-size="9.9626" font-family="Computer Modern" font-style="italic"><tspan y="-40.328" x="92.839">s</tspan></text>
<text xml:space="preserve" transform="matrix(1 0 -0 1 .000015258789 115.79599)" font-size="6.9738" font-family="Computer Modern"><tspan y="-38.834" x="97.508998">3</tspan></text>
<text xml:space="preserve" transform="matrix(1 0 -0 1 .000015258789 115.79599)" font-size="9.9626" font-family="Computer Modern" font-style="italic"><tspan y="-40.328" x="185.732">t</tspan></text>
<text xml:space="preserve" transform="matrix(1 0 -0 1 .000015258789 115.79599)" font-size="6.9738" font-family="Computer Modern"><tspan y="-38.834" x="189.33">2</tspan></text>
<text xml:space="preserve" transform="matrix(1 0 -0 1 .000011444092 115.796)" font-size="9.9626" font-family="Computer Modern"><tspan y="-6.137" x="45.918">(</tspan></text>
<text xml:space="preserve" transform="matrix(1 0 -0 1 .000011444092 115.796)" font-size="9.9626" font-family="Computer Modern" font-style="italic"><tspan y="-6.137" x="49.79345">S</tspan></text>
<text xml:space="preserve" transform="matrix(1 0 -0 1 .000011444092 115.796)" font-size="9.9626" font-family="Computer Modern"><tspan y="-6.137" x="56.478357">)</tspan></text>
<text xml:space="preserve" transform="matrix(1 0 -0 1 .000015258789 115.796)" font-size="9.9626" font-family="Computer Modern"><tspan y="-6.137" x="182.288">(</tspan></text>
<text xml:space="preserve" transform="matrix(1 0 -0 1 .000015258789 115.796)" font-size="9.9626" font-family="Computer Modern" font-style="italic"><tspan y="-6.137" x="186.16345">T</tspan></text>
<text xml:space="preserve" transform="matrix(1 0 -0 1 .000015258789 115.796)" font-size="9.9626" font-family="Computer Modern"><tspan y="-6.137" x="193.36641">)</tspan></text>
<path transform="matrix(1,0,0,-1,100.766,57.898)" stroke-width=".39848" stroke-linecap="butt" stroke-miterlimit="10" stroke-linejoin="miter" fill="none" stroke="#000000" d="M-56.6912 43.8976-83.98314 23.6495"/>
<path transform="matrix(-.80307,.5958,.5958,.80307,16.622857,34.36718)" stroke-width=".39848" stroke-linecap="round" stroke-linejoin="round" fill="none" stroke="#000000" d="M-2.07213 2.39091C-1.69356 .95633-.84995 .27893 0 0-.84995-.27893-1.69356-.95633-2.07213-2.39091"/>
<text xml:space="preserve" transform="matrix(1 0 -0 1 -.0000038146974 115.796009)" font-size="6.9738" font-family="Computer Modern" font-style="italic"><tspan y="-93.896" x="23.604">a</tspan></text>
<path transform="matrix(1,0,0,-1,100.766,57.898)" stroke-width=".39848" stroke-linecap="butt" stroke-miterlimit="10" stroke-linejoin="miter" fill="none" stroke="#000000" d="M-38.5742 43.8976-11.28226 23.6495"/>
<path transform="matrix(.80307,.5958,.5958,-.80307,89.64373,34.36718)" stroke-width=".39848" stroke-linecap="round" stroke-linejoin="round" fill="none" stroke="#000000" d="M-2.07213 2.39091C-1.69356 .95633-.84995 .27893 0 0-.84995-.27893-1.69356-.95633-2.07213-2.39091"/>
<text xml:space="preserve" transform="matrix(1 0 -0 1 -.0000076293949 115.796009)" font-size="6.9738" font-family="Computer Modern" font-style="italic"><tspan y="-93.896" x="78.342">a</tspan></text>
<path transform="matrix(1,0,0,-1,100.766,57.898)" stroke-width=".39848" stroke-linecap="butt" stroke-miterlimit="10" stroke-linejoin="miter" fill="none" stroke="#000000" d="M89.00061 42.78502V25.64897"/>
<path transform="matrix(0,1,1,0,189.7666,32.448259)" stroke-width=".39848" stroke-linecap="round" stroke-linejoin="round" fill="none" stroke="#000000" d="M-2.07213 2.39091C-1.69356 .95633-.84995 .27893 0 0-.84995-.27893-1.69356-.95633-2.07213-2.39091"/>
<text xml:space="preserve" transform="matrix(1 0 -0 1 .000015258789 115.796009)" font-size="6.9738" font-family="Computer Modern" font-style="italic"><tspan y="-90.414" x="192.109">a</tspan></text>
<path transform="matrix(1,0,0,-1,100.766,57.898)" stroke-width=".39848" stroke-linecap="butt" stroke-miterlimit="10" stroke-linejoin="miter" fill="none" stroke="#000000" d="M-3.35724 9.93752V-9.0369"/>
<path transform="matrix(0,1,1,0,97.40876,67.134128)" stroke-width=".39848" stroke-linecap="round" stroke-linejoin="round" fill="none" stroke="#000000" d="M-2.07213 2.39091C-1.69356 .95633-.84995 .27893 0 0-.84995-.27893-1.69356-.95633-2.07213-2.39091"/>
<text xml:space="preserve" transform="matrix(1 0 -0 1 0 115.796009)" font-size="6.9738" font-family="Computer Modern" font-style="italic"><tspan y="-55.728" x="99.753">b</tspan></text>
<path transform="matrix(1,0,0,-1,100.766,57.898)" stroke-width=".39848" stroke-linecap="butt" stroke-miterlimit="10" stroke-linejoin="miter" fill="none" stroke="#000000" d="M89.00061 9.93752V-7.19852"/>
<path transform="matrix(0,1,1,0,189.7666,65.29577)" stroke-width=".39848" stroke-linecap="round" stroke-linejoin="round" fill="none" stroke="#000000" d="M-2.07213 2.39091C-1.69356 .95633-.84995 .27893 0 0-.84995-.27893-1.69356-.95633-2.07213-2.39091"/>
<text xml:space="preserve" transform="matrix(1 0 -0 1 .000015258789 115.796)" font-size="6.9738" font-family="Computer Modern" font-style="italic"><tspan y="-56.647" x="192.109">b</tspan></text>
</svg>
